<?xml version="1.0" encoding="utf-8"?>
<!-- Generator: Adobe Illustrator 25.2.1, SVG Export Plug-In . SVG Version: 6.00 Build 0)  -->
<svg version="1.1" id="Ebene_1" xmlns="http://www.w3.org/2000/svg" xmlns:xlink="http://www.w3.org/1999/xlink" x="0px" y="0px"
	 viewBox="0 0 512 512" style="enable-background:new 0 0 512 512;" xml:space="preserve">
<style type="text/css">
	.st0{fill:url(#SVGID_1_);}
	.st1{fill:#FFFFFF;}
</style>
<g>
	<linearGradient id="SVGID_1_" gradientUnits="userSpaceOnUse" x1="6.4271" y1="503.3642" x2="503.3541" y2="10.5238">
		<stop  offset="0" style="stop-color:#045922"/>
		<stop  offset="1" style="stop-color:#95C11F"/>
	</linearGradient>
	<polygon class="st0" points="0,62.8 0,511.8 512,448.9 512,-0.1 	"/>
</g>
<g>
	<path class="st1" d="M310.9,221.3v172.3c-56.4,15.7-98.2,25.2-125.3,28.5s-50.3,3.1-69.5-0.6c-19.2-3.7-34.2-11.8-45.1-24.3
		c-10.9-12.5-18.5-27.9-22.7-46.1C44.1,333,42,309.4,42,280.6c0-59.3,11.2-102.1,33.7-128.5c22.4-26.4,60.3-42.8,113.6-49.2
		c15.9-1.9,33.8-2.8,53.8-2.6c19.9,0.2,35.9,0.8,47.7,1.8l17.8,2v80.6c-44.9,1.4-76.8,3.3-95.6,5.6c-18.9,2.3-31.2,4.6-36.9,7
		c-5.8,2.4-10.4,4.9-13.8,7.7c-3.4,2.7-5.9,7.6-7.5,14.5c-2.2,9.8-3.3,26.7-3.3,50.6c0,24,2.8,41.1,8.4,51.3
		c5.6,10.2,17,14.3,34.1,12.2l15.9-2.4v-23l-14,1.7l-0.5-74.6L310.9,221.3z"/>
	<path class="st1" d="M461,76v227.1c0,30.1-7.5,53.1-22.4,69.1c-11.5,12.8-32.4,21.9-62.7,27.4c-11.5,2.3-26.7,4.6-45.4,6.9v-88
		c4-0.5,7-0.9,8.9-1.3c1.9-0.4,3.8-1.5,5.8-3.5c2-1.9,3.3-4,4-6.2c0.6-2.2,1.2-6.1,1.9-11.7c0.9-8.7,1.4-24.1,1.4-46.2V89.1L461,76z
		"/>
</g>
</svg>
