<?xml version="1.0" standalone="no"?>
<!DOCTYPE svg PUBLIC "-//W3C//DTD SVG 20010904//EN"
 "http://www.w3.org/TR/2001/REC-SVG-20010904/DTD/svg10.dtd">
<svg version="1.0" xmlns="http://www.w3.org/2000/svg"
 width="512.000000pt" height="512.000000pt" viewBox="0 0 512.000000 512.000000"
 preserveAspectRatio="xMidYMid meet">
<metadata>
Created by potrace 1.11, written by Peter Selinger 2001-2013
</metadata>
<g transform="translate(0.000000,512.000000) scale(0.100000,-0.100000)"
fill="#000000" stroke="none">
<path d="M4505 5049 c-302 -38 -1430 -177 -2505 -309 -1075 -132 -1965 -243
-1977 -245 l-23 -5 0 -2240 c0 -1721 3 -2240 12 -2240 16 0 5025 618 5066 625
l32 6 0 2239 0 2240 -27 -1 c-16 -1 -275 -32 -578 -70z m-128 -2104 c-3 -940
-4 -962 -25 -1055 -13 -59 -39 -131 -67 -188 -121 -244 -323 -344 -850 -421
-77 -12 -146 -21 -152 -21 -10 0 -13 82 -13 375 l0 375 23 4 c12 3 35 8 51 11
47 10 82 57 97 127 9 47 14 287 18 953 l6 889 455 56 455 55 3 -100 c2 -55 1
-532 -1 -1060z m-1752 925 c88 -5 190 -12 228 -16 l67 -7 0 -347 0 -347 -187
-7 c-537 -19 -840 -56 -970 -117 -149 -71 -172 -146 -173 -565 0 -258 14 -371
56 -464 31 -67 48 -86 99 -113 51 -26 164 -33 265 -15 l75 13 3 102 3 103 -61
-7 -60 -6 2 319 3 318 465 57 c256 32 473 58 483 59 16 0 17 -42 17 -740 l0
-739 -72 -22 c-155 -46 -660 -168 -798 -193 -222 -40 -335 -49 -545 -43 -149
4 -208 10 -275 26 -250 63 -414 224 -507 496 -57 165 -89 492 -80 800 16 526
121 857 338 1074 293 293 854 425 1624 381z"/>
</g>
</svg>
