<?xml version="1.0" encoding="UTF-8"?>
<svg width="255px" height="82px" viewBox="0 0 255 82" version="1.1" xmlns="http://www.w3.org/2000/svg" xmlns:xlink="http://www.w3.org/1999/xlink">
    <title>gjlogo</title>
    <g id="Entwurf-2" stroke="none" stroke-width="1" fill="none" fill-rule="evenodd">
        <g id="gj_web_position_d" transform="translate(-34.000000, -59.000000)" fill="#FFFFFF">
            <g id="Group" transform="translate(34.000000, 59.000000)">
                <g id="gjlogo">
                    <path d="M28.8,29.3455011 L28.8,47.2039367 C22.7561386,48.8347562 18.2819661,49.8197423 15.3762396,50.1600977 C12.4717559,50.4992504 9.99231865,50.478805 7.93917059,50.0987615 C5.88602253,49.718718 4.27407759,48.8804576 3.10582143,47.5851828 C1.93632244,46.289908 1.12724291,44.697574 0.676097182,42.8081806 C0.224951452,40.9199899 0,38.4785713 0,35.4863303 C0,29.3430958 1.20181245,24.9052463 3.60668019,22.1727818 C6.0103051,19.4403173 10.068131,17.739743 15.7764295,17.0710589 C17.4803435,16.8714158 19.4005092,16.7824182 21.5369266,16.8028636 C23.673344,16.823309 25.377258,16.8870505 26.6461831,16.9928854 L28.5489492,17.1985418 L28.5489492,25.5546877 C23.7404566,25.7050213 20.3264144,25.8962457 18.3068226,26.1331716 C16.285988,26.3688948 14.9673499,26.6118339 14.3496656,26.8595838 C13.7319812,27.1073337 13.2385794,27.3707182 12.8719458,27.6533455 C12.5040694,27.9347701 12.2368619,28.4350805 12.0703232,29.1554794 C11.836672,30.1693296 11.7198464,31.9180106 11.7198464,34.4015226 C11.7198464,36.8838319 12.0206102,38.6553637 12.6221378,39.7149153 C13.2224226,40.7744669 14.4416347,41.1966038 16.278531,40.981326 L17.9812023,40.7347788 L17.9812023,38.3474804 L16.478626,38.5230701 L16.4276701,30.7935149 L28.8,29.3455011 Z" id="Fill-1"></path>
                    <path d="M46.3205423,28.8291927 C47.8989874,28.6330182 48.6894094,27.465842 48.6894094,25.3264303 C48.6894094,23.1870185 47.8018339,22.227121 46.0302812,22.4479714 L43.56546,22.755188 L43.56546,29.1721895 L46.3205423,28.8291927 Z M46.3697188,37.7865914 L43.6134371,38.1295882 L43.6134371,46.6045705 L32.4,48 L32.4,15.1808807 L46.0302812,13.4844037 C51.0246925,12.8638015 54.6013819,13.258618 56.7615488,14.6713207 C58.9205163,16.0852572 60,19.0685892 60,23.625018 C60,28.1802131 58.8077702,31.5855052 56.4233106,33.8421281 L59.6137847,44.6132149 L48.2060406,46.0333204 L46.3697188,37.7865914 Z" id="Fill-3"></path>
                    <path d="M79.0998526,7.8798557 L79.0998526,0.951351388 L86.9729283,0 L86.9729283,6.92850431 L79.0998526,7.8798557 Z M68.9785398,9.10267551 L68.9785398,2.1741712 L76.8504023,1.22281981 L76.8504023,8.15132412 L68.9785398,9.10267551 Z M74.9443148,10.4515342 L74.9443148,31.5739589 C74.9443148,32.5034958 75.1809074,33.1324785 75.6528795,33.4596949 C76.1248515,33.7881232 76.9159203,33.8850762 78.0248726,33.7517658 C79.1313982,33.6172435 79.913974,33.3300202 80.3713864,32.890096 C80.8275856,32.4501717 81.0556852,31.7654411 81.0556852,30.8346922 L81.0556852,9.71226755 L92.4,8.3415944 L92.4,28.8386721 C92.4,33.3942516 91.2425159,36.7330708 88.928761,38.8575536 C86.6125795,40.9820364 82.9702658,42.3430142 77.9993934,42.9441229 C73.0285209,43.5452315 69.3862072,43.0871285 67.071239,41.5710259 C64.7562708,40.0537113 63.6,37.0336251 63.6,32.5107673 L63.6,11.8209955 L74.9443148,10.4515342 Z" id="Fill-5"></path>
                    <polygon id="Fill-7" points="96 40.8 96 8.51518155 107.326627 7.16674421 114.978387 18.4943461 115.672433 18.4118135 115.672433 6.17271164 127.2 4.8 127.2 37.0848184 115.82283 38.4393244 108.270923 26.1844442 107.526335 26.2730454 107.526335 39.4272884"></polygon>
                    <polygon id="Fill-9" points="130.8 36 130.8 4.13164871 156 1.2 156 9.9985403 142.446483 11.5763831 142.446483 14.2875891 152.988107 13.0607774 152.988107 21.7658691 142.446483 22.9914828 142.446483 25.8452577 156 24.2686129 156 33.0683513"></polygon>
                    <path d="M92.4,46.8 L92.4,70.7185841 C92.4,73.8898862 91.6427962,76.3132743 90.1295624,77.9924147 C88.9626467,79.3367046 86.8483458,80.2972609 83.7890075,80.8765276 C82.6220918,81.120944 81.0935966,81.3616941 79.2,81.6 L79.2,72.3329541 C79.6097118,72.2816266 79.9102455,72.2351875 80.0992529,72.1948588 C80.2882604,72.1557522 80.4854856,72.033544 80.6909285,71.8294564 C80.8951974,71.6265908 81.0290288,71.4078382 81.0935966,71.1719764 C81.1558164,70.9385588 81.2180363,70.5267172 81.2814301,69.9364517 C81.3765208,69.0186684 81.4234792,67.3957438 81.4234792,65.066456 L81.4234792,48.1821745 L92.4,46.8 Z" id="Fill-11"></path>
                    <path d="M107.344315,45.3063777 L107.344315,66.393142 C107.344315,67.3223195 107.580907,67.9490304 108.052879,68.2769042 C108.526065,68.6035682 109.31592,68.7003575 110.424873,68.5672722 C111.532612,68.4341869 112.315187,68.1474485 112.771386,67.7070571 C113.227586,67.2678755 113.456899,66.5843009 113.456899,65.6563333 L113.456899,44.5695689 L124.8,43.2 L124.8,63.6624732 C124.8,68.2103616 123.642516,71.5447538 121.328761,73.6644401 C119.013793,75.7853361 115.371479,77.1452262 110.400607,77.74532 C105.428521,78.3442039 101.786207,77.8868744 99.4724523,76.3733313 C97.1574841,74.8597882 96,71.8448007 96,67.3295787 L96,46.6747368 L107.344315,45.3063777 Z" id="Fill-13"></path>
                    <path d="M157.2,52.1455011 L157.2,70.0039367 C151.156139,71.6347562 146.681966,72.6197423 143.77624,72.9600977 C140.871756,73.2992504 138.392319,73.278805 136.339171,72.8987615 C134.286023,72.518718 132.674078,71.6804576 131.505821,70.3851828 C130.336322,69.089908 129.527243,67.497574 129.076097,65.6081806 C128.624951,63.7199899 128.4,61.2785713 128.4,58.2863303 C128.4,52.1430958 129.601812,47.7052463 132.00668,44.9727818 C134.410305,42.2403173 138.468131,40.539743 144.176429,39.8710589 C145.880344,39.6714158 147.800509,39.5824182 149.936927,39.6028636 C152.073344,39.623309 153.777258,39.6870505 155.046183,39.7928854 L156.948949,39.9985418 L156.948949,48.3546877 C152.140457,48.5050213 148.726414,48.6962457 146.706823,48.9331716 C144.685988,49.1688948 143.36735,49.4118339 142.749666,49.6595838 C142.131981,49.9073337 141.639822,50.1707182 141.271946,50.4533455 C140.904069,50.7347701 140.638105,51.2350805 140.471566,51.9554794 C140.236672,52.9693296 140.119846,54.7180106 140.119846,57.2015226 C140.119846,59.6838319 140.42061,61.4553637 141.022138,62.5149153 C141.622423,63.5744669 142.841635,63.9966038 144.678531,63.781326 L146.381202,63.5347788 L146.381202,61.1474804 L144.878626,61.3230701 L144.82767,53.5935149 L157.2,52.1455011 Z" id="Fill-15"></path>
                    <polygon id="Fill-17" points="160.8 70.8 160.8 38.9316487 186 36 186 44.7985403 172.446483 46.375185 172.446483 49.086391 182.988107 47.8607774 182.988107 56.5646711 172.446483 57.7914828 172.446483 60.6452577 186 59.0686129 186 67.8683513"></polygon>
                    <polygon id="Fill-19" points="188.4 67.2 188.4 34.91627 199.726627 33.5678781 207.378387 44.8950981 208.073665 44.8125683 208.073665 32.573879 219.6 31.2 219.6 63.4849437 208.22283 64.839404 200.670923 52.584937 199.926335 52.6735352 199.926335 65.8273346"></polygon>
                    <path d="M242.854004,45.1197736 C242.854004,42.1780535 242.549131,40.2539562 241.940609,39.3474816 C241.332087,38.441007 239.975463,38.1162075 237.870737,38.3730831 L235.848045,38.6200789 L235.848045,52.937191 L237.870737,52.6901951 C239.58121,52.4814837 240.847229,51.9022785 241.670019,50.9513447 C242.45975,50.0065857 242.854004,48.0614937 242.854004,45.1197736 M238.857595,61.8364499 L224.4,63.6 L224.4,30.7495575 L238.364166,29.0465214 C244.05513,28.3512282 248.150714,29.126795 250.650918,31.3719869 C253.149898,33.6159438 254.4,37.5419422 254.4,43.1475121 C254.4,48.753082 253.198874,53.0989732 250.797845,56.1876558 C248.396817,59.2751034 244.416325,61.1584464 238.857595,61.8364499" id="Fill-21"></path>
                </g>
            </g>
        </g>
    </g>
</svg>